<svg xmlns="http://www.w3.org/2000/svg" width="200" height="250" viewBox="0 0 200 250"><path d="M156.4 155c.1-8.5.1-18.4.1-30 0-68.1-1-78.4-4.7-89.6C144.2 12.2 126.3 0 100 0 73.7 0 55.8 12.2 48.2 35.4c-2.6 7.9-3.9 15.2-4.4 41.7L9.1 53 .6 65.3l43 29.7c-.1 8.5-.1 18.4-.1 30 0 68.1 1 78.3 4.7 89.6C55.8 237.8 73.7 250 100 250c26.3 0 44.2-12.2 51.8-35.3 2.6-7.8 3.9-15.2 4.4-41.7l34.7 24 8.5-12.3-43-29.7zm-30.7 51.2c-3.8 11.6-12.4 17.5-25.7 17.5-13.1 0-21.5-5.7-25.6-17.5-2.2-7.2-3.2-13.9-3.2-81.2v-10.9l58 40.1c-.4 39.6-1.7 45.8-3.5 52zm3.5-70.1L71.2 96c.3-40.7 1.3-46.2 3.1-52.1C78.4 32 86.8 26.3 100 26.3c13.5 0 21.9 5.7 25.6 17.4 2.3 7.6 3.6 15.1 3.6 81.3v11.1z"/></svg>
